<svg xmlns="http://www.w3.org/2000/svg" xmlns:xlink="http://www.w3.org/1999/xlink" width="500" zoomAndPan="magnify" viewBox="0 0 375 374.999991" height="500" preserveAspectRatio="xMidYMid meet" version="1.0"><defs><clipPath id="a32466c1ff"><path d="M 46 44 L 134 44 L 134 118 L 46 118 Z M 46 44 " clip-rule="nonzero"/></clipPath><clipPath id="a93c754fb0"><path d="M 53.167969 43.5625 C 75.53125 23.945312 113.894531 13.617188 136.328125 57.503906 C 137.046875 58.910156 129.496094 71.972656 96.511719 98.257812 C 72.476562 117.410156 55.757812 124.5625 54.539062 122.839844 C 29.625 87.636719 31.488281 62.578125 53.167969 43.5625 Z M 53.167969 43.5625 " clip-rule="evenodd"/></clipPath><clipPath id="2d48effd97"><path d="M 44 40 L 131 40 L 131 113 L 44 113 Z M 44 40 " clip-rule="nonzero"/></clipPath><clipPath id="3efbc949b4"><path d="M 53.167969 43.5625 C 75.53125 23.945312 113.894531 13.617188 136.328125 57.503906 C 137.046875 58.910156 129.496094 71.972656 96.511719 98.257812 C 72.476562 117.410156 55.757812 124.5625 54.539062 122.839844 C 29.625 87.636719 31.488281 62.578125 53.167969 43.5625 Z M 53.167969 43.5625 " clip-rule="evenodd"/></clipPath><clipPath id="f25b42ebdc"><path d="M 18.75 277 L 356.25 277 L 356.25 361.53125 L 18.75 361.53125 Z M 18.75 277 " clip-rule="nonzero"/></clipPath><clipPath id="c4591c9bc6"><path d="M 100 159.332031 L 142 159.332031 L 142 209 L 100 209 Z M 100 159.332031 " clip-rule="nonzero"/></clipPath><clipPath id="0364197171"><path d="M 94.851562 185.003906 C 89.742188 167.65625 93.609375 230.324219 101.804688 229.230469 C 110.003906 228.140625 138.070312 187.65625 144.027344 178.449219 C 146.617188 174.445312 140.324219 169.601562 133.199219 165.773438 C 126.214844 162.023438 121.214844 157.679688 117.8125 160.125 C 113.441406 163.261719 104.113281 174.042969 94.851562 185.003906 Z M 94.851562 185.003906 " clip-rule="evenodd"/></clipPath></defs><path fill="#53413f" d="M 57.414062 122.785156 C 49.695312 113.335938 47.601562 47.148438 66.703125 42.746094 C 72.902344 38.097656 119.503906 39.242188 120.484375 41.464844 C 125.617188 43.941406 135.546875 60.214844 134.542969 63.65625 C 132.75 69.78125 125.734375 76.421875 124.964844 82.976562 C 124.644531 85.707031 124.898438 88.542969 124.453125 91.207031 C 120.5625 114.453125 117.347656 122.40625 106.945312 129.402344 C 100.929688 133.453125 92.242188 134.988281 81.90625 134.960938 C 74.378906 134.941406 64.402344 131.335938 57.414062 122.785156 Z M 57.414062 122.785156 " fill-opacity="1" fill-rule="evenodd"/><path fill="#f8c0ad" d="M 117.582031 114.066406 C 111.863281 117.1875 107.457031 108.753906 107.15625 106.058594 C 105.574219 91.992188 115.125 96.488281 117.613281 96.707031 C 116.085938 92.128906 115.113281 82.296875 114.8125 78.980469 C 114.414062 74.582031 115.121094 60.269531 115.097656 59.695312 C 114.980469 56.628906 121.464844 45.980469 122.304688 48.933594 C 122.464844 49.488281 127.5 62.214844 130.726562 73.300781 C 132.050781 77.855469 133.855469 87.316406 134.46875 91.308594 C 134.609375 92.210938 136.992188 91.316406 137.476562 93.523438 C 138.007812 95.941406 135.074219 96.300781 135.097656 96.542969 C 135.808594 103.921875 134.707031 113.773438 131.878906 118.238281 C 126.976562 125.992188 116.292969 128.402344 105.886719 129.9375 C 111.417969 126.828125 114.882812 121.207031 118.042969 113.96875 C 118.042969 113.96875 118.75 112.320312 119.046875 111.601562 C 119.203125 111.214844 117.972656 113.851562 117.582031 114.066406 Z M 117.582031 114.066406 " fill-opacity="1" fill-rule="evenodd"/><path fill="#53413f" d="M 109.171875 45.066406 C 109.171875 45.066406 109.527344 93.710938 115.722656 92.945312 C 120.019531 92.417969 122.621094 85.570312 124.847656 84.972656 C 125.949219 84.679688 136.105469 75.945312 134.660156 68.753906 C 138.734375 59.785156 131.035156 51.605469 127.492188 47.320312 C 125.242188 44.597656 109.171875 45.066406 109.171875 45.066406 Z M 109.171875 45.066406 " fill-opacity="1" fill-rule="evenodd"/><path fill="#f4e2d9" d="M 53.167969 43.5625 C 75.53125 23.945312 113.894531 13.617188 136.328125 57.503906 C 137.046875 58.910156 129.496094 71.972656 96.511719 98.257812 C 72.476562 117.410156 55.757812 124.5625 54.539062 122.839844 C 29.625 87.636719 31.488281 62.578125 53.167969 43.5625 Z M 53.167969 43.5625 " fill-opacity="1" fill-rule="evenodd"/><g clip-path="url(#a32466c1ff)"><g clip-path="url(#a93c754fb0)"><path fill="#67583c" d="M 46.785156 117.285156 C 47.859375 117.671875 49.3125 117.710938 51.0625 117.394531 C 53.402344 116.964844 56.347656 115.902344 59.65625 114.378906 C 72.203125 108.589844 90.152344 96.089844 100.164062 87.75 C 109.707031 79.796875 123.242188 67.652344 129.773438 57.375 C 132.734375 52.710938 134.238281 48.378906 133.550781 44.941406 C 133.433594 44.339844 132.847656 43.949219 132.246094 44.070312 C 131.644531 44.1875 131.253906 44.773438 131.375 45.375 C 131.683594 46.917969 131.417969 48.667969 130.75 50.5625 C 129.667969 53.628906 127.53125 57.035156 124.789062 60.5625 C 117.769531 69.585938 106.800781 79.324219 98.742188 86.039062 C 88.851562 94.285156 71.121094 106.640625 58.726562 112.359375 C 55.621094 113.792969 52.863281 114.808594 50.664062 115.207031 C 49.382812 115.441406 48.324219 115.476562 47.535156 115.191406 C 46.957031 114.984375 46.320312 115.285156 46.113281 115.863281 C 45.90625 116.441406 46.207031 117.078125 46.785156 117.285156 Z M 46.785156 117.285156 " fill-opacity="1" fill-rule="evenodd"/></g></g><g clip-path="url(#2d48effd97)"><g clip-path="url(#3efbc949b4)"><path fill="#67583c" d="M 44.789062 112.46875 C 45.839844 112.875 47.234375 112.9375 48.90625 112.667969 C 51.257812 112.296875 54.199219 111.28125 57.492188 109.800781 C 70.105469 104.136719 88.023438 91.65625 97.988281 83.339844 C 107.480469 75.417969 120.765625 63.175781 127.148438 52.84375 C 129.972656 48.273438 131.433594 44.046875 130.765625 40.703125 C 130.695312 40.359375 130.363281 40.136719 130.019531 40.203125 C 129.675781 40.273438 129.453125 40.609375 129.519531 40.953125 C 130.140625 44.050781 128.6875 47.9375 126.066406 52.175781 C 119.746094 62.40625 106.574219 74.519531 97.175781 82.363281 C 87.28125 90.625 69.496094 103.019531 56.972656 108.640625 C 53.800781 110.066406 50.972656 111.054688 48.707031 111.414062 C 47.304688 111.640625 46.128906 111.625 45.25 111.285156 C 44.925781 111.15625 44.558594 111.320312 44.429688 111.644531 C 44.300781 111.972656 44.464844 112.339844 44.789062 112.46875 Z M 44.789062 112.46875 " fill-opacity="1" fill-rule="evenodd"/></g></g><g clip-path="url(#f25b42ebdc)"><path fill="#e2936b" d="M 268.488281 277.375 C 267.214844 277.039062 265.878906 276.996094 264.582031 277.25 C 243.058594 281.476562 51.519531 319.105469 19.613281 325.371094 C 19.132812 325.464844 18.78125 325.882812 18.761719 326.371094 C 18.746094 326.863281 19.074219 327.300781 19.546875 327.425781 C 39.921875 332.816406 124.527344 355.199219 145.136719 360.652344 C 148.109375 361.441406 151.238281 361.425781 154.207031 360.617188 C 179.992188 353.574219 308.535156 318.457031 351.335938 306.765625 C 353.167969 306.265625 356.101562 305.003906 356.171875 303.136719 C 356.246094 301.300781 353.789062 299.945312 352.378906 299.570312 C 328.53125 293.261719 278.890625 280.128906 268.488281 277.375 Z M 268.488281 277.375 " fill-opacity="1" fill-rule="evenodd"/></g><path fill="#f4e2d9" d="M 267.558594 279.417969 C 266.246094 279.070312 264.875 279.027344 263.542969 279.289062 C 242.59375 283.402344 64.101562 318.394531 33.050781 324.492188 C 32.363281 324.628906 31.863281 325.21875 31.839844 325.921875 C 31.816406 326.621094 32.28125 327.242188 32.957031 327.421875 C 52.785156 332.667969 125.28125 350.066406 145.339844 355.375 C 148.316406 356.160156 151.449219 356.148438 154.417969 355.335938 C 180.585938 348.1875 309.777344 315.144531 345.425781 305.40625 C 346.183594 305.199219 348.28125 304.640625 349.472656 303.941406 C 349.832031 303.730469 350.117188 303.5 350.289062 303.269531 C 350.457031 303.050781 350.535156 302.820312 350.535156 302.59375 C 350.53125 302.367188 350.453125 302.140625 350.285156 301.921875 C 350.109375 301.695312 349.824219 301.464844 349.460938 301.257812 C 348.265625 300.574219 346.164062 300.035156 345.402344 299.832031 C 324.199219 294.222656 278.28125 282.253906 267.558594 279.417969 Z M 267.316406 280.339844 C 278.039062 283.175781 323.953125 295.144531 345.160156 300.753906 C 345.875 300.945312 347.859375 301.4375 348.984375 302.085938 C 349.1875 302.203125 349.359375 302.320312 349.480469 302.445312 C 349.53125 302.5 349.582031 302.542969 349.582031 302.597656 C 349.582031 302.65625 349.53125 302.699219 349.480469 302.753906 C 349.363281 302.882812 349.191406 303 348.988281 303.121094 C 347.867188 303.777344 345.886719 304.292969 345.171875 304.488281 C 309.527344 314.226562 180.332031 347.269531 154.167969 354.417969 C 151.359375 355.183594 148.398438 355.195312 145.582031 354.453125 C 125.523438 349.144531 53.03125 331.746094 33.199219 326.5 C 32.953125 326.433594 32.78125 326.207031 32.792969 325.953125 C 32.800781 325.695312 32.984375 325.480469 33.234375 325.429688 C 64.285156 319.328125 242.777344 284.339844 263.726562 280.222656 C 264.914062 279.988281 266.140625 280.027344 267.3125 280.339844 Z M 267.316406 280.339844 " fill-opacity="0.6" fill-rule="evenodd"/><path fill="#f4e2d9" d="M 266.660156 281.707031 C 265.394531 281.371094 264.070312 281.328125 262.789062 281.582031 C 242.382812 285.589844 69.207031 318.8125 38.964844 324.753906 C 38.335938 324.878906 37.871094 325.421875 37.851562 326.0625 C 37.832031 326.707031 38.257812 327.277344 38.878906 327.445312 C 58.191406 332.554688 126.058594 347.703125 145.59375 352.875 C 148.476562 353.636719 151.511719 353.625 154.390625 352.839844 C 179.875 345.875 302.347656 314.582031 337.066406 305.097656 C 337.789062 304.898438 340.585938 304.382812 342.195312 303.722656 C 342.660156 303.535156 343.03125 303.328125 343.253906 303.121094 C 343.484375 302.914062 343.585938 302.683594 343.585938 302.464844 C 343.585938 302.246094 343.480469 302.019531 343.25 301.808594 C 343.023438 301.601562 342.652344 301.394531 342.191406 301.207031 C 340.570312 300.542969 337.769531 300.019531 337.042969 299.828125 C 316.390625 294.363281 277.105469 284.472656 266.660156 281.707031 Z M 342.820312 302.46875 C 342.8125 302.480469 342.800781 302.496094 342.792969 302.503906 C 342.757812 302.546875 342.710938 302.585938 342.660156 302.628906 C 342.476562 302.761719 342.214844 302.890625 341.910156 303.015625 C 340.324219 303.664062 337.574219 304.167969 336.863281 304.359375 C 302.144531 313.84375 179.675781 345.140625 154.191406 352.101562 C 151.441406 352.855469 148.542969 352.867188 145.789062 352.136719 C 126.253906 346.96875 58.386719 331.816406 39.074219 326.707031 C 38.792969 326.632812 38.605469 326.375 38.613281 326.089844 C 38.621094 325.800781 38.828125 325.558594 39.113281 325.5 C 69.351562 319.558594 242.53125 286.339844 262.933594 282.328125 C 264.105469 282.101562 265.3125 282.140625 266.464844 282.445312 C 276.910156 285.207031 316.195312 295.097656 336.847656 300.5625 C 337.558594 300.75 340.3125 301.261719 341.902344 301.910156 C 342.210938 302.039062 342.472656 302.167969 342.65625 302.304688 C 342.710938 302.34375 342.757812 302.386719 342.792969 302.429688 C 342.800781 302.4375 342.8125 302.457031 342.820312 302.46875 Z M 342.820312 302.46875 " fill-opacity="0.6" fill-rule="evenodd"/><path fill="#f8c0ad" d="M 140.855469 168.144531 C 140.855469 168.144531 152.804688 150.140625 143.859375 144.882812 C 140.824219 143.09375 138.539062 146.800781 135.402344 149.921875 C 130.964844 154.335938 125.628906 158.695312 125.628906 158.695312 Z M 140.855469 168.144531 " fill-opacity="1" fill-rule="evenodd"/><path fill="#67583c" d="M 122.71875 162.355469 C 125.253906 165.011719 137.230469 172.441406 140.683594 173.503906 C 142.441406 174.046875 144.722656 170.078125 143.429688 168.726562 C 140.894531 166.070312 128.917969 158.640625 125.464844 157.578125 C 123.707031 157.039062 121.425781 161.003906 122.71875 162.355469 Z M 122.71875 162.355469 " fill-opacity="1" fill-rule="evenodd"/><path fill="#f4e2d9" d="M 94.851562 185.003906 C 89.742188 167.65625 93.609375 230.324219 101.804688 229.230469 C 110 228.140625 138.070312 187.65625 144.027344 178.449219 C 146.617188 174.445312 140.324219 169.601562 133.199219 165.773438 C 126.214844 162.023438 121.214844 157.679688 117.8125 160.125 C 113.441406 163.261719 104.113281 174.042969 94.851562 185.003906 Z M 94.851562 185.003906 " fill-opacity="1" fill-rule="evenodd"/><g clip-path="url(#c4591c9bc6)"><g clip-path="url(#0364197171)"><path fill="#53413f" d="M 141.6875 206.046875 C 143.125 220.847656 99.945312 158.558594 100.167969 156.386719 C 101.414062 144.21875 109.957031 153.269531 112.996094 155.015625 C 128.027344 163.652344 139.804688 186.667969 141.6875 206.046875 Z M 141.6875 206.046875 " fill-opacity="0.15" fill-rule="evenodd"/></g></g><path fill="#f4e2d9" d="M 103.796875 148.875 C 108.042969 149.570312 115.417969 153.964844 121.039062 161.492188 C 127.683594 170.386719 133.613281 187.964844 137.625 205.625 C 143.101562 229.726562 141.453125 232.933594 155.289062 270.140625 C 158.855469 279.730469 178.066406 277.363281 185.074219 284.925781 C 197.257812 298.0625 202.320312 313.308594 194.992188 324.171875 C 187.664062 335.035156 154.996094 348.128906 141.109375 350.101562 C 130.265625 351.640625 112.136719 340.890625 111.671875 336.011719 C 110.765625 326.964844 54.226562 333.644531 51.816406 304.320312 C 48.484375 263.832031 51.839844 232.980469 53.328125 214.429688 C 54.609375 198.460938 59.363281 168.738281 65.394531 160.558594 C 70.980469 152.984375 76.113281 149.867188 80.320312 148.964844 C 95.242188 145.773438 88.738281 146.40625 103.796875 148.875 Z M 103.796875 148.875 " fill-opacity="1" fill-rule="evenodd"/><path fill="#53413f" d="M 67.90625 275.507812 C 72.925781 294 85.929688 296.308594 92.550781 300.929688 C 81.957031 299.128906 69.480469 296.003906 64.210938 277.328125 C 60.683594 264.828125 62.347656 242.574219 62.554688 235.242188 C 62.835938 225.304688 64.082031 261.410156 67.90625 275.507812 Z M 67.90625 275.507812 " fill-opacity="0.06" fill-rule="evenodd"/><path fill="#53413f" d="M 129.929688 310.863281 C 140.355469 308.117188 147.609375 305.421875 154.246094 302.671875 C 159.851562 300.347656 144.992188 304.15625 140.9375 305.523438 C 137.128906 306.808594 126.746094 311.703125 129.929688 310.863281 Z M 129.929688 310.863281 " fill-opacity="0.15" fill-rule="evenodd"/><path fill="#53413f" d="M 136.746094 328.375 C 137.292969 337.308594 136.621094 350.8125 128.054688 351.058594 C 120.214844 351.285156 114.777344 343.164062 114.648438 336.007812 C 114.648438 336.007812 114.433594 327.105469 114.433594 327.105469 C 113.984375 318.820312 119.851562 314.222656 124.144531 314.117188 C 131.714844 313.933594 136.371094 322.226562 136.746094 328.375 Z M 136.746094 328.375 " fill-opacity="0.38" fill-rule="evenodd"/><path fill="#f8c0ad" d="M 114.636719 345.449219 C 114.796875 338.535156 115.902344 330.171875 116.988281 323.726562 C 117.523438 320.570312 118.050781 317.875 118.460938 316.03125 C 118.863281 314.21875 121.769531 312.597656 124.824219 312.734375 C 130.128906 312.976562 131.585938 314.375 133.152344 316.660156 C 134.75 318.996094 135.769531 322.535156 136.308594 325.472656 C 137.746094 333.304688 139.441406 344.074219 137.605469 347.683594 C 136.207031 350.4375 131.71875 353.980469 126.929688 353.875 C 121.121094 353.75 114.542969 349.324219 114.636719 345.449219 Z M 114.636719 345.449219 " fill-opacity="1" fill-rule="evenodd"/><path fill="#f8c0ad" d="M 175.851562 181.535156 C 175.851562 181.535156 187.796875 163.53125 178.855469 158.269531 C 175.816406 156.484375 173.53125 160.191406 170.394531 163.3125 C 165.957031 167.726562 160.621094 172.085938 160.621094 172.085938 Z M 175.851562 181.535156 " fill-opacity="1" fill-rule="evenodd"/><path fill="#67583c" d="M 157.710938 175.746094 C 160.246094 178.398438 172.222656 185.832031 175.675781 186.890625 C 177.4375 187.433594 179.71875 183.46875 178.425781 182.113281 C 175.886719 179.460938 163.914062 172.027344 160.460938 170.96875 C 158.699219 170.425781 156.417969 174.390625 157.710938 175.746094 Z M 157.710938 175.746094 " fill-opacity="1" fill-rule="evenodd"/><path fill="#53413f" d="M 136.425781 242.175781 C 136.425781 242.175781 131.828125 244.644531 129.03125 244.96875 C 124.742188 245.460938 120.125 244.773438 117.144531 243.929688 C 112.53125 242.625 108.898438 237.6875 106.957031 233.773438 C 105.027344 229.886719 102.59375 223.628906 101.988281 222.097656 C 97.550781 210.875 91.042969 193.085938 91.160156 179.378906 C 91.1875 176.410156 92.714844 173.828125 92.550781 172.773438 C 92.222656 170.671875 88.214844 179.230469 88.828125 188.84375 C 89.714844 202.660156 93.539062 223.460938 98.496094 233.410156 C 102.238281 240.910156 106.648438 248.519531 118.585938 248.519531 C 129.644531 248.519531 136.425781 242.175781 136.425781 242.175781 Z M 136.425781 242.175781 " fill-opacity="0.15" fill-rule="evenodd"/><path fill="#53413f" d="M 135.097656 201.300781 C 128.839844 186.742188 125.8125 179.230469 120.945312 171.8125 C 118.109375 167.492188 113.585938 165.386719 113.585938 165.386719 C 113.585938 165.386719 127.019531 192.757812 130.0625 203.101562 Z M 135.097656 201.300781 " fill-opacity="0.15" fill-rule="evenodd"/><path fill="#f4e2d9" d="M 116.988281 244.488281 C 122.046875 245.917969 131.742188 246.914062 136.800781 242.621094 C 147.140625 233.84375 173.066406 201.042969 179.023438 191.835938 C 181.613281 187.832031 175.320312 182.988281 168.191406 179.160156 C 161.210938 175.410156 156.207031 171.070312 152.808594 173.511719 C 148.433594 176.652344 139.105469 187.433594 129.847656 198.394531 C 124.738281 181.042969 116.582031 156.527344 102.265625 160.46875 C 80.835938 166.371094 94.015625 203.515625 101.449219 222.3125 C 102.054688 223.851562 104.5 230.128906 106.4375 234.03125 C 108.441406 238.074219 112.222656 243.140625 116.988281 244.488281 Z M 116.988281 244.488281 " fill-opacity="1" fill-rule="evenodd"/><path fill="#67583c" d="M 80.109375 150.105469 C 80.15625 151.253906 85.839844 151.949219 92.792969 151.65625 C 99.746094 151.363281 105.351562 150.1875 105.300781 149.039062 L 105.050781 143.042969 L 105.050781 143.046875 C 105.066406 144.007812 99.464844 145.023438 92.527344 145.316406 C 85.574219 145.609375 79.898438 145.070312 79.855469 144.109375 Z M 80.109375 150.105469 " fill-opacity="1" fill-rule="evenodd"/><path fill="#53413f" d="M 92.378906 141.835938 C 85.429688 142.128906 79.816406 143.148438 79.855469 144.109375 C 79.898438 145.070312 85.574219 145.609375 92.527344 145.316406 C 99.480469 145.023438 105.089844 144.003906 105.050781 143.042969 C 105.007812 142.082031 99.332031 141.539062 92.378906 141.835938 Z M 92.378906 141.835938 " fill-opacity="1" fill-rule="evenodd"/></svg>